<?xml version="1.0" encoding="UTF-8"?>
<svg id="Layer_2" data-name="Layer 2" xmlns="http://www.w3.org/2000/svg" viewBox="0 0 35.72 37.52">
  <defs>
    <style>
      .cls-1 {
        fill: #fff;
      }

      .cls-2 {
        fill: #e11e2d;
      }
    </style>
  </defs>
  <g id="Layer_1-2" data-name="Layer 1">
    <g>
      <path class="cls-2" d="M5.95,36.8c-.39,0-.71-.32-.72-.71v-.71H.73V.72h34.27v6.83H11.16v14.27h19.66v5.68H11.16v7.88h-4.48v.71c-.02.39-.34.71-.73.71Z"/>
      <path class="cls-1" d="M34.27,1.45v5.38H10.43v15.72h19.66v4.23H10.43v7.88h-4.45l-.03,1.42-.03-1.42H1.45V1.45h32.82M35.72,0H0v36.1h4.51c.01.79.65,1.42,1.44,1.42s1.43-.63,1.44-1.42h4.49v-7.88h19.66v-7.13H11.88v-12.82h23.83V0h0Z"/>
    </g>
  </g>
</svg>