<?xml version="1.0" encoding="UTF-8"?>
<svg id="Layer_2" data-name="Layer 2" xmlns="http://www.w3.org/2000/svg" viewBox="0 0 40.68 30.16">
  <defs>
    <style>
      .cls-1 {
        fill: #fff;
      }
    </style>
  </defs>
  <g id="Layer_1-2" data-name="Layer 1">
    <path class="cls-1" d="M21.89,1.93v6.12h8.5l.07,3.24c0,5.54-.72,9.65-7.42,9.65h-4.9c-4.61,0-7.2-2.74-7.2-8.21V1.48h-3.9s0-.01,0-.02c0-.81-.66-1.46-1.46-1.46s-1.46.66-1.46,1.46c0,0,0,.01,0,.02H0v12.33c0,11.16,8.35,15.91,16.13,16.13,4.39.22,7.7.36,11.16,0,9-.79,13.39-5.98,13.39-16.35V1.93h-18.79Z"/>
  </g>
</svg>