<?xml version="1.0" encoding="UTF-8"?>
<svg id="Layer_2" data-name="Layer 2" xmlns="http://www.w3.org/2000/svg" viewBox="0 0 35.72 16.25">
  <defs>
    <style>
      .cls-1 {
        fill: #fff;
      }

      .cls-2 {
        fill: #e11e2d;
      }
    </style>
  </defs>
  <g id="Layer_1-2" data-name="Layer 1">
    <g>
      <path class="cls-2" d="M.73,15.52V.72h3.18c.3.85,1.1,1.46,2.05,1.46s1.75-.61,2.05-1.46h3.16v8.4h23.83v6.4H.73Z"/>
      <path class="cls-1" d="M10.43,1.45v8.4h23.83v4.95H1.45V1.45h1.99c.5.87,1.44,1.46,2.51,1.46s2.01-.59,2.51-1.46h1.97M11.88,0h-4.49s0,0,0,.01c0,.8-.65,1.45-1.45,1.45S4.5.81,4.5.01c0,0,0,0,0-.01H0v16.25h35.72v-7.85H11.88V0h0Z"/>
    </g>
  </g>
</svg>