<?xml version="1.0" encoding="UTF-8"?>
<svg id="Layer_2" data-name="Layer 2" xmlns="http://www.w3.org/2000/svg" viewBox="0 0 40.68 30.16">
  <defs>
    <style>
      .cls-1 {
        fill: #fff;
      }

      .cls-2 {
        fill: #e11e2d;
      }
    </style>
  </defs>
  <g id="Layer_1-2" data-name="Layer 1">
    <g>
      <path class="cls-2" d="M22.71,29.44c-1.95,0-4.02-.09-6.54-.22-7.13-.2-15.44-4.35-15.44-15.41V2.2h4.12v-.83c0-.32.33-.65.74-.65s.71.31.74.69l-.13.78h.86s3.18,0,3.18,0v10.53c0,5.76,2.81,8.93,7.93,8.93h4.9c7.51,0,8.14-5.12,8.14-10.37l-.09-3.97h-8.48V2.66h17.34v10.94c0,9.89-4.05,14.86-12.73,15.62-1.42.15-2.86.22-4.52.22h0Z"/>
      <path class="cls-1" d="M5.58,1.45h.01s0,.01,0,.01v1.06s-.02-1.06-.02-1.06h0s0-.01.01-.01M9.49,2.93v9.8c0,6.14,3.15,9.66,8.65,9.66h4.9c8.87,0,8.87-6.95,8.87-11.13l-.07-3.24-.03-1.42h-8.46v-3.22h15.89v10.22c0,9.57-3.72,14.17-12.09,14.9-1.39.14-2.79.21-4.44.21-1.93,0-4-.09-6.54-.22-6.79-.19-14.72-4.15-14.72-14.68V2.93h8.04M5.58,0c-.81,0-1.46.66-1.46,1.46,0,0,0,.01,0,.02H0v12.33c0,11.16,8.35,15.91,16.13,16.13,2.46.12,4.58.22,6.58.22,1.57,0,3.06-.06,4.59-.22,9-.79,13.39-5.98,13.39-16.35V1.93h-18.79v6.12h8.5l.07,3.24c0,5.54-.72,9.65-7.42,9.65h-4.9c-4.61,0-7.2-2.74-7.2-8.21V1.48h-3.9s0-.01,0-.02c0-.81-.66-1.46-1.46-1.46h0Z"/>
    </g>
  </g>
</svg>