<?xml version="1.0" encoding="UTF-8"?>
<svg id="Layer_2" data-name="Layer 2" xmlns="http://www.w3.org/2000/svg" viewBox="0 0 40.04 24.1">
  <defs>
    <style>
      .cls-1 {
        fill: #fff;
      }

      .cls-2 {
        fill: #e11e2d;
      }
    </style>
  </defs>
  <g id="Layer_1-2" data-name="Layer 1">
    <g>
      <path class="cls-2" d="M7.65,23.38c-.29-.86-1.11-1.49-2.07-1.49s-1.78.62-2.07,1.49H.73v-6.89C.73,7.06,7.67.73,18,.73h5.11c8,0,13.37,3.54,15.98,10.54l-8.89,2.69c-1.14-2.41-2.7-4.46-7.02-4.46h-4.39c-5.92,0-8.57,3.91-8.57,7.78v6.1h-2.57Z"/>
      <path class="cls-1" d="M23.11,1.45c7.38,0,12.42,3.14,15.02,9.35l-7.55,2.29c-1.2-2.32-3.02-4.31-7.4-4.31h-4.39c-6.42,0-9.3,4.27-9.3,8.51v5.37h-1.38c-.5-.89-1.45-1.49-2.54-1.49s-2.04.6-2.54,1.49h-1.59v-6.16C1.45,7.49,8.1,1.45,18,1.45h5.11M23.11,0h-5.11C6.77,0,0,7.27,0,16.49v7.61h4.12s0-.01,0-.02c0-.81.66-1.46,1.46-1.46s1.46.66,1.46,1.46c0,0,0,.01,0,.02h3.9v-6.82c0-3.82,2.66-7.06,7.85-7.06h4.39c4.18,0,5.47,2.02,6.62,4.61l10.23-3.1C37.73,4.9,32.55,0,23.11,0h0Z"/>
    </g>
  </g>
</svg>