<?xml version="1.0" encoding="UTF-8"?>
<svg id="Layer_2" data-name="Layer 2" xmlns="http://www.w3.org/2000/svg" viewBox="0 0 40.66 52.49">
  <defs>
    <style>
      .cls-1 {
        fill: #fff;
      }

      .cls-2 {
        fill: #e11e2d;
      }
    </style>
  </defs>
  <g id="Layer_1-2" data-name="Layer 1">
    <g>
      <path class="cls-2" d="M30,51.77L10.34,16.89l-3.75-6.66c.37-.39.59-.92.59-1.48,0-1.2-.97-2.17-2.17-2.17-.15,0-.3.02-.45.05L1.24.73h9.39l20.24,38.58V.73h9.06v51.04h-9.94Z"/>
      <path class="cls-1" d="M39.21,1.45v49.59h-8.79L12.33,18.95l-1.01-1.78-3.87-6.87c.29-.45.45-.99.45-1.55,0-1.6-1.3-2.9-2.9-2.9-.02,0-.03,0-.05,0L2.48,1.45h7.71l18.67,35.59,2.73,5.21V1.45h7.61M40.66,0h-10.51v36.36L11.07,0H0l4.24,7.53c.22-.14.49-.23.77-.23.8,0,1.45.65,1.45,1.45,0,.57-.33,1.05-.81,1.29l5.42,9.62h0s18.5,32.83,18.5,32.83h11.09V0h0Z"/>
    </g>
  </g>
</svg>