<?xml version="1.0" encoding="UTF-8"?>
<svg id="Layer_2" data-name="Layer 2" xmlns="http://www.w3.org/2000/svg" viewBox="0 0 916.48 405.25">
  <defs>
    <style>
      .cls-1 {
        fill: #0c0d0d;
      }
    </style>
  </defs>
  <g id="Layer_1-2" data-name="Layer 1">
    <path class="cls-1" d="M418.69,405.25c.41-21.64,18.06-39.05,39.8-39.05s39.39,17.42,39.8,39.05h418.21c-7.7-48.45-106.97-8.44-115.34-5.35,0,0,.92-5.6-4.4-12.81-1.63-.94-8.7-1.62-19.51-2.08-6.2-99.13-57.59-186-133.84-240.23,5.28-9.33,8.41-15.62,8.47-17.49-3.3-8.33-8.54-10.52-8.54-10.52,7.37-5.71,101.53-74.29,50.76-104.83l.03-.05c-51.01-30.97-67.35,84.73-68.93,93.93,0,0-4.39-3.6-13.3-2.6-1.63.94-5.73,6.7-11.53,15.81-42.75-21.23-90.91-33.19-141.87-33.19-47.52,0-92.61,10.39-133.14,29.01-5.43-9.22-9.3-15.06-10.89-16.05-8.86-1.31-13.38,2.14-13.38,2.14-1.26-9.23-13.57-125.07-65.41-96.37l-.03-.05c-52.33,28.69,39.71,100.69,46.88,106.66,0,0-5.31,2.01-8.9,10.22,0,1.88,2.94,8.33,7.94,17.91-78.08,52.05-131.93,137.56-141.08,236.05-10.74.1-17.75.53-19.41,1.41-5.56,7.02-4.84,12.66-4.84,12.66-8.63-3.52-115.1-50.79-116.17,8.46H.01c-.06,2.66.11,5.11.47,7.38h418.21ZM688.99,384.18c-66.61.36-141.42,1.94-152.9,2.18-3.54-14.62-11.1-27.66-21.45-37.9,6.92-10.57,47.48-72.62,82.73-128.41,50.95,38.27,85.57,97.07,91.62,164.12ZM458.48,173.77c34.65,0,67.52,7.63,97.03,21.28-33,57.87-69.05,123.48-74.58,133.55-7.12-2.08-14.65-3.22-22.45-3.22-7.31,0-14.37,1-21.1,2.84-5.71-11.3-39.17-77.46-69.86-135.88,27.92-11.94,58.66-18.56,90.95-18.56ZM324.97,216.14c33.64,57.54,72.45,121.6,78.36,131.36-10.54,10.06-18.33,22.97-22.13,37.5-12.68-.71-86.65-4.81-152.54-7.44,7.94-66.61,44.15-124.53,96.31-161.42Z"/>
  </g>
</svg>