<svg width="225" height="166" viewBox="0 0 225 166" fill="none" xmlns="http://www.w3.org/2000/svg">
<path d="M58.5088 10.1457V70.0643C58.5088 85.4034 62.1562 97.2541 69.371 105.284C76.6182 113.35 87.1834 117.251 100.332 117.251H127.434C146.399 117.251 157.462 111.424 163.569 101.151C169.514 91.1521 170.473 77.3382 170.473 62.1387V62.117L170.473 62.0953L170.086 44.2628L170.043 42.3062H168.086H123.073V12.5674H223V74.7976C223 103.086 216.978 123.965 205.098 138.288C193.248 152.573 175.306 160.65 150.766 162.794L150.75 162.795L150.734 162.797C131.772 164.76 113.613 164 89.3142 162.788L89.2925 162.787L89.2709 162.787C68.1099 162.191 46.2737 155.464 29.7649 141.452C13.3108 127.486 2 106.164 2 76.0085V10.1457H22.7876H24.7876V8.14573V8.14541V8.14508V8.14476V8.14444V8.14412V8.14379V8.14347V8.14315V8.14283V8.1425V8.14218V8.14186V8.14154V8.14122V8.14089V8.14057V8.14025V8.13993V8.1396V8.13928V8.13896V8.13864V8.13832V8.13799V8.13767V8.13735V8.13703V8.13671V8.13639V8.13607V8.13574V8.13542V8.1351V8.13478V8.13446V8.13414V8.13382V8.1335V8.13318V8.13286V8.13254V8.13222V8.1319V8.13157V8.13126V8.13093V8.13062V8.13029V8.12998V8.12966V8.12934V8.12902V8.1287V8.12838V8.12806V8.12774V8.12742V8.1271V8.12679V8.12647V8.12615V8.12583V8.12551V8.1252V8.12488V8.12456V8.12425V8.12393V8.12361V8.1233V8.12298V8.12266V8.12235V8.12203V8.12172V8.1214V8.12109V8.12077V8.12045V8.12014V8.11983V8.11951V8.1192V8.11888V8.11857V8.11826V8.11794V8.11763V8.11732V8.117V8.11669V8.11638V8.11607V8.11576V8.11545V8.11513V8.11482V8.11451V8.1142V8.11389V8.11358V8.11327V8.11296V8.11265V8.11234V8.11203V8.11173V8.11142V8.11111V8.1108V8.11049V8.11019V8.10988V8.10957V8.10927V8.10896V8.10866V8.10835V8.10804V8.10774V8.10744V8.10713V8.10683V8.10652V8.10622V8.10592V8.10561V8.10531V8.10501V8.10471V8.10441V8.1041V8.1038V8.1035V8.1032V8.1029V8.1026V8.1023V8.10201V8.10171V8.10141V8.10111V8.10081V8.10052V8.10022V8.09992V8.09963V8.09933V8.09904V8.09874V8.09845V8.09815V8.09786V8.09756V8.09727V8.09698V8.09669V8.09639V8.0961V8.09581V8.09552V8.09523V8.09494V8.09465V8.09436V8.09407V8.09379V8.0935V8.09321V8.09292V8.09264V8.09235V8.09206V8.09178V8.09149V8.09121V8.09092V8.09064V8.09036V8.09007V8.08979V8.08951V8.08923V8.08895V8.08867V8.08839V8.08811V8.08783V8.08755V8.08727V8.08699V8.08672V8.08644V8.08616V8.08589V8.08561V8.08534V8.08506V8.08479V8.08451V8.08424V8.08397V8.0837V8.08342V8.08315V8.08288V8.08261V8.08234V8.08208V8.08181V8.08154V8.08127V8.081V8.08074V8.08047V8.08021V8.07994V8.07968V8.07941V8.07915V8.07889V8.07863V8.07836V8.0781V8.07784V8.07758V8.07732V8.07706V8.07681V8.07655V8.07629V8.07604V8.07578V8.07552V8.07527V8.07502V8.07476V8.07451V8.07425V8.074V8.07375V8.0735V8.07325V8.073V8.07275V8.0725V8.07226V8.07201V8.07176V8.07152V8.07127V8.07103V8.07078V8.07054V8.0703V8.07006V8.06981V8.06957V8.06933V8.06909V8.06885V8.06861V8.06838V8.06814V8.0679V8.06767V8.06743V8.0672V8.06697V8.06673V8.0665V8.06627V8.06604V8.06581V8.06558V8.06535V8.06512V8.06489V8.06466V8.06444V8.06421V8.06399V8.06376V8.06354V8.06332V8.06309V8.06287V8.06265V8.06243V8.06221V8.06199V8.06178V8.06156V8.06134V8.06113V8.06091V8.0607V8.06048V8.06027V8.06006V8.05985V8.05964V8.05943V8.05922V8.05901V8.0588V8.05859V8.05839V8.05818V8.05798V8.05777V8.05757V8.05737V8.05717V8.05697V8.05677V8.05657V8.05637V8.05617V8.05597V8.05578V8.05558V8.05539V8.05519V8.055V8.05481V8.05462V8.05443V8.05424V8.05405V8.05386V8.05367V8.05349V8.0533V8.05312V8.05293V8.05275V8.05257V8.05239V8.05221V8.05202V8.05185V8.05167V8.05149V8.05131V8.05114V8.05096V8.05079V8.05062V8.05044V8.05027V8.0501V8.04993V8.04976V8.0496V8.04943V8.04926V8.0491V8.04893V8.04877V8.04861V8.04845V8.04829V8.04813V8.04797V8.04781V8.04765V8.04749V8.04734V8.04718V8.04703V8.04688V8.04673V8.04658V8.04643V8.04628V8.04613V8.04598V8.04584V8.04569V8.04555V8.0454V8.04526V8.04512V8.04498V8.04484V8.0447V8.04456V8.04443V8.04429V8.04415V8.04402V8.04389V8.04376V8.04362V8.04349V8.04337V8.04324V8.04311V8.04298V8.04286V8.04273V8.04261V8.04249V8.04237V8.04225V8.04213V8.04201V8.04189V8.04178V8.04166V8.04155V8.04143V8.04132V8.04121V8.0411V8.04099V8.04088V8.04078V8.04067V8.04057V8.04046V8.04036V8.04026V8.04016V8.04006V8.03996V8.03986V8.03976V8.03967V8.03957V8.03948V8.03939V8.0393V8.03921V8.03912V8.03903V8.03894V8.03886V8.03877V8.03869V8.0386V8.03852V8.03844V8.03836V8.03829V8.03821V8.03813V8.03806V8.03798V8.03791V8.03784V8.03777V8.0377V8.03763V8.03756V8.0375V8.03743V8.03737V8.0373V8.03724V8.03718V8.03712V8.03707V8.03701V8.03695V8.0369V8.03684V8.03679V8.03674V8.03669V8.03664V8.03659V8.03655V8.0365V8.03646V8.03641V8.03637V8.03633V8.03629V8.03625V8.03622V8.03618V8.03614V8.03611V8.03608V8.03605V8.03602V8.03599V8.03596V8.03593V8.03591V8.03588V8.03586V8.03584V8.03582V8.0358V8.03578V8.03577V8.03575V8.03574V8.03571V8.03569V8.03568V8.03566C24.7876 4.74638 27.5333 2 30.8628 2C34.2013 2 36.9381 4.70022 36.9381 8.03566V8.03598V8.0363V8.03663V8.03695V8.03727V8.03759V8.03792V8.03824V8.03856V8.03888V8.03921V8.03953V8.03985V8.04017V8.0405V8.04082V8.04114V8.04146V8.04178V8.04211V8.04243V8.04275V8.04307V8.04339V8.04372V8.04404V8.04436V8.04468V8.045V8.04532V8.04564V8.04597V8.04629V8.04661V8.04693V8.04725V8.04757V8.04789V8.04821V8.04853V8.04885V8.04917V8.04949V8.04981V8.05013V8.05045V8.05077V8.05109V8.05141V8.05173V8.05205V8.05237V8.05269V8.05301V8.05333V8.05365V8.05397V8.05428V8.0546V8.05492V8.05524V8.05556V8.05587V8.05619V8.05651V8.05683V8.05714V8.05746V8.05778V8.05809V8.05841V8.05873V8.05904V8.05936V8.05967V8.05999V8.0603V8.06062V8.06093V8.06125V8.06156V8.06188V8.06219V8.06251V8.06282V8.06313V8.06345V8.06376V8.06407V8.06438V8.0647V8.06501V8.06532V8.06563V8.06594V8.06626V8.06657V8.06688V8.06719V8.0675V8.06781V8.06812V8.06843V8.06874V8.06905V8.06936V8.06966V8.06997V8.07028V8.07059V8.0709V8.0712V8.07151V8.07182V8.07212V8.07243V8.07273V8.07304V8.07334V8.07365V8.07395V8.07426V8.07456V8.07487V8.07517V8.07547V8.07578V8.07608V8.07638V8.07668V8.07698V8.07728V8.07759V8.07789V8.07819V8.07849V8.07879V8.07908V8.07938V8.07968V8.07998V8.08028V8.08058V8.08087V8.08117V8.08147V8.08176V8.08206V8.08235V8.08265V8.08294V8.08324V8.08353V8.08382V8.08412V8.08441V8.0847V8.08499V8.08529V8.08558V8.08587V8.08616V8.08645V8.08674V8.08703V8.08732V8.0876V8.08789V8.08818V8.08847V8.08875V8.08904V8.08933V8.08961V8.0899V8.09018V8.09046V8.09075V8.09103V8.09131V8.0916V8.09188V8.09216V8.09244V8.09272V8.093V8.09328V8.09356V8.09384V8.09412V8.0944V8.09467V8.09495V8.09523V8.0955V8.09578V8.09605V8.09633V8.0966V8.09688V8.09715V8.09742V8.09769V8.09796V8.09824V8.09851V8.09878V8.09904V8.09931V8.09958V8.09985V8.10012V8.10038V8.10065V8.10092V8.10118V8.10145V8.10171V8.10198V8.10224V8.1025V8.10276V8.10303V8.10329V8.10355V8.10381V8.10407V8.10432V8.10458V8.10484V8.1051V8.10535V8.10561V8.10587V8.10612V8.10637V8.10663V8.10688V8.10713V8.10739V8.10764V8.10789V8.10814V8.10839V8.10864V8.10888V8.10913V8.10938V8.10963V8.10987V8.11012V8.11036V8.11061V8.11085V8.11109V8.11133V8.11158V8.11182V8.11206V8.1123V8.11254V8.11277V8.11301V8.11325V8.11349V8.11372V8.11396V8.11419V8.11442V8.11466V8.11489V8.11512V8.11535V8.11558V8.11581V8.11604V8.11627V8.1165V8.11672V8.11695V8.11718V8.1174V8.11763V8.11785V8.11807V8.11829V8.11852V8.11874V8.11896V8.11918V8.1194V8.11961V8.11983V8.12005V8.12026V8.12048V8.12069V8.12091V8.12112V8.12133V8.12154V8.12175V8.12196V8.12217V8.12238V8.12259V8.1228V8.123V8.12321V8.12341V8.12361V8.12382V8.12402V8.12422V8.12442V8.12462V8.12482V8.12502V8.12522V8.12541V8.12561V8.12581V8.126V8.12619V8.12639V8.12658V8.12677V8.12696V8.12715V8.12734V8.12753V8.12772V8.1279V8.12809V8.12827V8.12846V8.12864V8.12882V8.129V8.12918V8.12936V8.12954V8.12972V8.1299V8.13007V8.13025V8.13043V8.1306V8.13077V8.13094V8.13112V8.13129V8.13146V8.13162V8.13179V8.13196V8.13213V8.13229V8.13245V8.13262V8.13278V8.13294V8.1331V8.13326V8.13342V8.13358V8.13374V8.13389V8.13405V8.1342V8.13436V8.13451V8.13466V8.13481V8.13496V8.13511V8.13526V8.13541V8.13555V8.1357V8.13584V8.13599V8.13613V8.13627V8.13641V8.13655V8.13669V8.13683V8.13696V8.1371V8.13723V8.13737V8.1375V8.13763V8.13776V8.13789V8.13802V8.13815V8.13828V8.13841V8.13853V8.13865V8.13878V8.1389V8.13902V8.13914V8.13926V8.13938V8.1395V8.13961V8.13973V8.13984V8.13995V8.14007V8.14018V8.14029V8.1404V8.1405V8.14061V8.14072V8.14082V8.14093V8.14103V8.14113V8.14123V8.14133V8.14143V8.14153V8.14163V8.14172V8.14182V8.14191V8.142V8.14209V8.14218V8.14227V8.14236V8.14245V8.14253V8.14262V8.1427V8.14278V8.14287V8.14295V8.14303V8.1431V8.14318V8.14326V8.14333V8.14341V8.14348V8.14355V8.14362V8.14369V8.14376V8.14383V8.14389V8.14396V8.14402V8.14408V8.14415V8.14421V8.14427V8.14432V8.14438V8.14444V8.14449V8.14454V8.1446V8.14465V8.1447V8.14475V8.1448V8.14484V8.14489V8.14493V8.14498V8.14502V8.14506V8.1451V8.14514V8.14517V8.14521V8.14524V8.14528V8.14531V8.14534V8.14537V8.14543V8.14548V8.14553V8.14557V8.14561V8.14564V8.14568V8.14573V10.1457H38.9381H58.5088Z" fill="#E1192C" stroke="white" stroke-width="4"/>
<rect x="3" y="9" width="57" height="4" fill="white"/>
<rect x="26" y="4" width="10" height="7" fill="white"/>
</svg>
