<?xml version="1.0" encoding="UTF-8"?>
<svg id="Layer_2" data-name="Layer 2" xmlns="http://www.w3.org/2000/svg" viewBox="0 0 35.03 55.51">
  <defs>
    <style>
      .cls-1 {
        fill: #fff;
      }

      .cls-2 {
        fill: #e11f2d;
      }
    </style>
  </defs>
  <g id="Layer_1-2" data-name="Layer 1">
    <g>
      <path class="cls-2" d="M29.21,54.51c-1.51,0-2.69-.56-4.07-1.95L1.88,29.89l5.61-1.83,1.52-4.87,15.9,15.26V1h9.12v47.57c0,3.66-1.85,5.94-4.82,5.94Z"/>
      <path class="cls-1" d="M33.03,2v46.57c0,3.09-1.43,4.94-3.82,4.94-1.05,0-1.98-.28-3.38-1.67L3.76,30.33l3.55-1.16.98-.32.31-.98.89-2.83,13.04,12.52,3.39,3.25V2h7.12M35.03,0h-11.12v36.11l-15.37-14.76-1.85,5.92-6.69,2.18,24.44,23.82c1.57,1.57,2.98,2.24,4.78,2.24,3.43,0,5.82-2.61,5.82-6.94V0h0Z"/>
    </g>
  </g>
</svg>