<?xml version="1.0" encoding="UTF-8"?>
<svg id="Layer_2" data-name="Layer 2" xmlns="http://www.w3.org/2000/svg" viewBox="0 0 49.24 14.82">
  <defs>
    <style>
      .cls-1 {
        fill: #fff;
      }

      .cls-2 {
        fill: #e11f2d;
      }
    </style>
  </defs>
  <g id="Layer_1-2" data-name="Layer 1">
    <g>
      <path class="cls-2" d="M10.56,13.12c-1.64-.77-3.43-1.18-5.19-1.18-1.54,0-3.02.31-4.37.91V1h47.25v9.64H10.56v2.48Z"/>
      <path class="cls-1" d="M47.24,2v7.64H9.56v2h0c-1.36-.46-2.79-.7-4.19-.7-1.16,0-2.29.16-3.37.48V2h45.24M49.24,0H0v14.55s.02-.02.03-.03c1.63-1.09,3.49-1.58,5.34-1.58,2.18,0,4.37.68,6.19,1.88v-3.18h37.68V0h0Z"/>
    </g>
  </g>
</svg>