<?xml version="1.0" encoding="UTF-8"?>
<svg id="Layer_2" data-name="Layer 2" xmlns="http://www.w3.org/2000/svg" viewBox="0 0 60.04 32.16">
  <defs>
    <style>
      .cls-1 {
        fill: #fff;
      }

      .cls-2 {
        fill: #e11f2d;
      }
    </style>
  </defs>
  <g id="Layer_1-2" data-name="Layer 1">
    <g>
      <path class="cls-2" d="M26.76,31.16C12.59,31.16,1.88,20.75,1.03,6.31l4.71-1.61,4.94,1.85c.67,8.85,7.19,14.96,16.07,14.96h22.64v-13.34h-22.91V1h32.55v30.16H26.76Z"/>
      <path class="cls-1" d="M58.04,2v28.16h-31.28C13.39,30.16,3.22,20.51,2.09,7.01l3.65-1.24,4.02,1.5c.98,8.91,7.94,15.25,17.01,15.25h23.64V7.18h-22.91V2h30.55M60.04,0H25.49v9.18h22.91v11.34h-21.64c-8.55,0-14.76-6.13-15.11-14.67l-5.88-2.2L0,5.61c.53,15.18,11.69,26.55,26.76,26.55h33.28V0h0Z"/>
    </g>
  </g>
</svg>