<?xml version="1.0" encoding="UTF-8"?>
<svg id="Layer_2" data-name="Layer 2" xmlns="http://www.w3.org/2000/svg" viewBox="0 0 104.57 413.09">
  <defs>
    <style>
      .cls-1 {
        fill: none;
        stroke: #fff;
        stroke-miterlimit: 10;
        stroke-width: 3.3px;
      }

      .cls-2 {
        fill: #fff;
      }
    </style>
  </defs>
  <g id="Layer_1-2" data-name="Layer 1">
    <g>
      <path class="cls-1" d="M1.65,0v40.86l.88,87.16c.13,2.85.27,7.43,1.1,12.6,1.52,9.5,5.33,20.99,15.57,27.41,19.93,12.51,37.33-9.46,48.2,3.46,9.25,11-14.35,36.64-13.09,54.28,1.97,27.41,37.79,36.76,47.13,93.6,8.87,53.98-23.93,79.06-47.5,92.28"/>
      <path class="cls-2" d="M10.53,143.73l-6.91-3.11s6.79,21.38,15.57,27.41c14.92,10.25,41.24-2.07,41.24-2.07.29-.98-27.76,1.26-36.07-3.63-11.85-5.98-13.83-18.61-13.83-18.61Z"/>
    </g>
  </g>
</svg>