<?xml version="1.0" encoding="UTF-8"?>
<svg id="Layer_2" data-name="Layer 2" xmlns="http://www.w3.org/2000/svg" viewBox="0 0 107.35 422.99">
  <defs>
    <style>
      .cls-1 {
        fill: none;
        stroke: #fff;
        stroke-miterlimit: 10;
        stroke-width: 3.3px;
      }

      .cls-2 {
        fill: #fff;
      }
    </style>
  </defs>
  <g id="Layer_1-2" data-name="Layer 1">
    <g>
      <path class="cls-1" d="M1.65,0v39.7l.88,91.09c0,12.16-2.52,24.71,12.12,31.14,14.75,6.48,46.77-3.22,54.9,13.26,6.94,14.08-4,35.61-3.08,53.28,2.06,39.36,34.41,62.8,38.99,120.13,2.44,30.64-13.56,59.73-37.13,72.94"/>
      <path class="cls-2" d="M57.7,166.5c1.67,0,4.44-.23-3.73-2.51-7.71-2.15-26.14-6.26-32.68-9.62-13.46-6.92-12.64-20.92-12.64-20.92l-6.14-4.05s-2.56,21.81,6.89,29.46c6.35,5.98,45.04,7.65,48.3,7.65Z"/>
    </g>
  </g>
</svg>