<?xml version="1.0" encoding="UTF-8"?>
<svg id="Layer_2" data-name="Layer 2" xmlns="http://www.w3.org/2000/svg" viewBox="0 0 154.39 431.42">
  <defs>
    <style>
      .cls-1 {
        stroke: #fff;
        stroke-miterlimit: 10;
        stroke-width: 3.3px;
      }

      .cls-1, .cls-2 {
        fill: #fff;
      }

      .cls-3 {
        fill: #939598;
      }
    </style>
  </defs>
  <g id="Layer_1-2" data-name="Layer 1">
    <g>
      <g>
        <path class="cls-3" d="M54.28,141.37l-6.09-2.74s3.38,20.28,14.75,27.04c15.56,9.26,41.24-2.07,41.24-2.07.29-.98-27.76,1.26-36.07-3.63-11.85-5.98-13.83-18.61-13.83-18.61Z"/>
        <path class="cls-1" d="M48.19,417.1l57.43-8.53c24.24-13.16,49.44-46.27,46.95-77.4-4.57-57.33-48.72-81.53-50.13-106-1.02-17.66,19.2-44.99,10.25-56.92-8.56-11.42-33.06,11.57-51.54-2.55-12.03-9.2-11.79-30.32-11.79-30.32l-.87-90.45V0"/>
      </g>
      <rect class="cls-2" width="48.27" height="431.42"/>
    </g>
  </g>
</svg>