<?xml version="1.0" encoding="UTF-8"?>
<svg id="Layer_2" data-name="Layer 2" xmlns="http://www.w3.org/2000/svg" viewBox="0 0 49.32 41.31">
  <defs>
    <style>
      .cls-1 {
        fill: #fff;
      }

      .cls-2 {
        fill: #e11f2d;
      }
    </style>
  </defs>
  <g id="Layer_1-2" data-name="Layer 1">
    <g>
      <path class="cls-2" d="M1,40.31V2.15c1.3-.76,2.8-1.15,4.37-1.15,1.78,0,3.61.51,5.19,1.44v7.71h35.59v7.18H10.56v13.34h37.75v9.64H1Z"/>
      <path class="cls-1" d="M5.37,2h0c1.42,0,2.88.36,4.19,1.03v8.12h35.59v5.18H9.56v15.34h37.75v7.64H2V2.75c1.02-.49,2.17-.75,3.37-.75M5.37,0C3.52,0,1.66.49.03,1.58c0,0-.02.02-.03.03v39.69h49.32v-11.64H11.56v-11.34h35.59v-9.18H11.56V1.88C9.74.68,7.55,0,5.37,0h0Z"/>
    </g>
  </g>
</svg>