<?xml version="1.0" encoding="UTF-8"?>
<svg id="Layer_2" data-name="Layer 2" xmlns="http://www.w3.org/2000/svg" viewBox="0 0 216.65 76.46">
  <defs>
    <style>
      .cls-1 {
        fill: #e11e2d;
      }
    </style>
  </defs>
  <g id="Layer_1-2" data-name="Layer 1">
    <path class="cls-1" d="M0,0v76.46h216.65V0H0ZM72.73,20.4h-37.78c-9.89,0-17.16,7.36-17.16,17.59,0,.3.03.58.04.87.4,9.69,7.44,16.63,17.13,16.63h24.52v-12.85h-25.96v-10.4h39.15v36.44h-37.71c-17.08,0-29.73-12.89-30.33-30.09-.01-.43-.03-.85-.03-1.28,0-18.09,12.85-30.1,30.36-30.1h37.78v13.19ZM136.08,68.68h-55.89V7.21h55.81v13.19h-42.7v11.84h40.33v10.4h-40.33v12.85h42.78v13.19ZM209.01,61.66c0,4.91-2.71,7.87-6.6,7.87-2.03,0-3.64-.76-5.41-2.54l-27.69-26.99-12.56-12.24v40.92h-12.51V14.23c0-4.82,2.54-7.78,6.6-7.78,1.95,0,3.47.67,5.33,2.45l22.83,21.92,17.42,16.72V6.62h12.6v55.05Z"/>
  </g>
</svg>