<?xml version="1.0" encoding="UTF-8"?>
<svg id="Layer_2" data-name="Layer 2" xmlns="http://www.w3.org/2000/svg" viewBox="0 0 60.12 27.93">
  <defs>
    <style>
      .cls-1 {
        fill: #fff;
      }

      .cls-2 {
        fill: #e11f2d;
      }
    </style>
  </defs>
  <g id="Layer_1-2" data-name="Layer 1">
    <g>
      <path class="cls-2" d="M5.81,24.67l-4.8,1.64C1.12,11.39,11.69,1,26.79,1h32.33v9.64H26.79c-9.13,0-15.82,6.62-16.13,15.84l-4.85-1.81Z"/>
      <path class="cls-1" d="M58.12,2v7.64h-31.33c-9.24,0-16.12,6.37-17.04,15.43l-3.25-1.22-.67-.25-.68.23-3.1,1.06C2.8,11.33,12.76,2,26.79,2h31.33M60.12,0H26.79C11.34,0,0,10.6,0,26.56c0,.38.01.76.03,1.13l5.76-1.96,5.88,2.2c-.01-.26-.03-.51-.03-.77,0-9.03,6.42-15.52,15.15-15.52h33.33V0h0Z"/>
    </g>
  </g>
</svg>