<?xml version="1.0" encoding="UTF-8"?>
<svg id="Layer_2" data-name="Layer 2" xmlns="http://www.w3.org/2000/svg" viewBox="0 0 30.67 54.92">
  <defs>
    <style>
      .cls-1 {
        fill: #fff;
      }

      .cls-2 {
        fill: #e11f2d;
      }
    </style>
  </defs>
  <g id="Layer_1-2" data-name="Layer 1">
    <g>
      <path class="cls-2" d="M1,53.92V6.87C1,3.19,2.8,1,5.82,1c1.48,0,2.57.51,4.01,1.89l19.7,18.91-1.51,4.83-5.63,1.84-12.35-12.03v37.48H1Z"/>
      <path class="cls-1" d="M5.82,2c1.03,0,1.91.26,3.31,1.61l19.25,18.49-1.17,3.75-4.56,1.49-10.21-9.96-3.4-3.31v38.86H2V6.87c0-1.82.5-4.87,3.82-4.87M5.82,0C2.24,0,0,2.61,0,6.87v48.05h11.04V18.8l11.08,10.8,6.69-2.18,1.85-5.92L10.52,2.16C8.88.6,7.54,0,5.82,0h0Z"/>
    </g>
  </g>
</svg>