<svg width="224" height="166" viewBox="0 0 224 166" fill="none" xmlns="http://www.w3.org/2000/svg">
<path d="M120.535 10.6225V44.3062H167.339L167.725 62.1387C167.725 92.6302 163.76 115.251 126.867 115.251H99.8859C74.5015 115.251 60.2399 100.17 60.2399 70.0643V8.14573H38.765C38.765 8.14573 38.765 8.0907 38.765 8.03566C38.765 3.57752 35.1308 0 30.7257 0C26.3206 0 22.6863 3.63256 22.6863 8.03566C22.6863 8.03566 22.6863 8.09069 22.6863 8.14573H0V76.0085C0 137.432 45.9784 163.575 88.8181 164.786C112.991 165.997 131.217 166.767 150.269 164.786C199.827 160.438 224 131.873 224 74.7976V10.5674H120.535V10.6225Z" fill="white"/>
</svg>
