<svg width="220" height="132" viewBox="0 0 220 132" fill="none" xmlns="http://www.w3.org/2000/svg">
<path d="M127.065 0H98.9808C37.2621 0 0 39.8191 0 90.3187V132H22.643C22.643 132 22.643 131.945 22.643 131.89C22.643 127.454 26.2703 123.894 30.667 123.894C35.0637 123.894 38.691 127.509 38.691 131.89C38.691 131.89 38.691 131.945 38.691 132H60.1249V94.6456C60.1249 73.7228 74.7439 55.9768 103.268 55.9768H127.394C150.367 55.9768 157.457 67.0407 163.777 81.2266L220 64.2473C207.414 26.8382 178.946 0 127.065 0Z" fill="white"/>
</svg>
