<svg width="220" height="132" viewBox="0 0 220 132" fill="none" xmlns="http://www.w3.org/2000/svg">
<path d="M98.9808 2H127.065C152.647 2 172.294 8.61075 187.068 19.695C201.327 30.393 211.19 45.3666 217.43 62.9342L164.878 78.805C161.887 72.289 158.486 66.2356 153.113 61.747C147.232 56.8344 139.222 53.9768 127.394 53.9768H103.268C88.5808 53.9768 77.2606 58.5548 69.6024 66.0344C61.9506 73.5078 58.1249 83.714 58.1249 94.6457V130H40.509C39.6128 125.401 35.5159 121.894 30.667 121.894C25.8199 121.894 21.7128 125.36 20.822 130H2V90.3187C2 65.5744 11.1206 43.5308 27.7273 27.6682C44.3342 11.8055 68.5603 2 98.9808 2Z" fill="#E1192C" stroke="white" stroke-width="4"/>
</svg>
