<?xml version="1.0" encoding="UTF-8"?>
<svg id="Layer_2" data-name="Layer 2" xmlns="http://www.w3.org/2000/svg" viewBox="0 0 12.75 52.49">
  <defs>
    <style>
      .cls-1 {
        fill: #fff;
      }

      .cls-2 {
        fill: #e11e2d;
      }
    </style>
  </defs>
  <g id="Layer_1-2" data-name="Layer 1">
    <g>
      <path class="cls-2" d="M.72,51.77V.73h.53l4.39,7.79.64-.38c.12-.07.24-.1.36-.1.4,0,.72.32.72.72,0,.26-.15.5-.39.63l-.65.35,5.7,10.12v31.92H.72Z"/>
      <path class="cls-1" d="M1.45,2.55l3.19,5.67.72,1.28h0s.69,1.23.69,1.23l5.24,9.31v31H1.45V2.55M1.68,0H0v52.49h12.75V19.66l-5.43-9.64c.46-.24.77-.72.77-1.27,0-.8-.65-1.45-1.45-1.45-.27,0-.52.08-.74.21L1.68,0h0Z"/>
    </g>
  </g>
</svg>