<?xml version="1.0" encoding="UTF-8"?>
<svg id="Layer_2" data-name="Layer 2" xmlns="http://www.w3.org/2000/svg" viewBox="0 0 97.75 384.04">
  <defs>
    <style>
      .cls-1 {
        fill: none;
        stroke: #fff;
        stroke-miterlimit: 10;
        stroke-width: 3.3px;
      }

      .cls-2 {
        fill: #fff;
      }
    </style>
  </defs>
  <g id="Layer_1-2" data-name="Layer 1">
    <g>
      <path class="cls-2" d="M52.73,153.79s-10.56,3.58-20.82,2.75c-7.1-.58-13.71-4.63-17.98-7.85-10.44-7.87-11.41-35.21-11.41-35.21l5.47,4.91s2.39,19.33,13.55,26.39,31.19,9.02,31.19,9.02Z"/>
      <g>
        <path class="cls-1" d="M64.53,382.65c20.86-13.34,33.59-33.82,31.31-62.4-4.57-57.33-46.94-91.79-46.94-109.48s23.64-42.43,14.75-54.4c-7.36-9.92-23.44,8.33-45.45-4.33-13.93-8.01-15.79-33.85-15.69-39.18L1.65,22.66V0"/>
        <path class="cls-1" d="M2.52,112.85l5.47,5.53c1,1.04.2,11.45,10.31,23.38s39.66,11.54,39.66,11.54"/>
      </g>
    </g>
  </g>
</svg>